<svg xmlns="http://www.w3.org/2000/svg" xmlns:xlink="http://www.w3.org/1999/xlink" width="500" zoomAndPan="magnify" viewBox="0 0 375 374.999991" height="500" preserveAspectRatio="xMidYMid meet" version="1.0"><defs><clipPath id="1d3ef916d3"><path d="M 0 157 L 373.5 157 L 373.5 375 L 0 375 Z M 0 157 " clip-rule="nonzero"/></clipPath><clipPath id="81bda3c4ec"><path d="M 102.53125 115 L 188 115 L 188 233 L 102.53125 233 Z M 102.53125 115 " clip-rule="nonzero"/></clipPath><clipPath id="39797ec076"><path d="M 181 115 L 266.78125 115 L 266.78125 233 L 181 233 Z M 181 115 " clip-rule="nonzero"/></clipPath></defs><path fill="#fcfaf8" d="M 331.75 373.082031 L 41.878906 373.082031 L 1.609375 159.101562 L 372.019531 159.101562 Z M 331.75 373.082031 " fill-opacity="1" fill-rule="nonzero"/><g clip-path="url(#1d3ef916d3)"><path fill="#ffa500" d="M 331.75 374.691406 L 41.878906 374.691406 C 41.492188 374.6875 41.148438 374.566406 40.851562 374.320312 C 40.550781 374.074219 40.363281 373.761719 40.289062 373.382812 L 0 159.390625 C -0.101562 158.898438 0.015625 158.457031 0.34375 158.074219 C 0.664062 157.6875 1.074219 157.492188 1.578125 157.492188 L 372.019531 157.492188 C 372.257812 157.492188 372.488281 157.542969 372.703125 157.644531 C 372.921875 157.746094 373.105469 157.886719 373.257812 158.070312 C 373.414062 158.253906 373.519531 158.460938 373.582031 158.691406 C 373.640625 158.921875 373.652344 159.15625 373.609375 159.390625 L 333.339844 373.382812 C 333.265625 373.761719 333.082031 374.074219 332.78125 374.324219 C 332.480469 374.570312 332.140625 374.691406 331.75 374.691406 Z M 43.207031 371.472656 L 330.421875 371.472656 L 370.101562 160.710938 L 3.550781 160.710938 Z M 43.207031 371.472656 " fill-opacity="1" fill-rule="nonzero"/></g><path fill="#ffa500" d="M 258.453125 374.691406 L 258.269531 374.691406 C 258.054688 374.664062 257.855469 374.601562 257.667969 374.496094 C 257.480469 374.394531 257.320312 374.257812 257.1875 374.089844 C 257.054688 373.921875 256.960938 373.734375 256.902344 373.527344 C 256.84375 373.320312 256.828125 373.113281 256.855469 372.898438 L 281.410156 158.921875 C 281.4375 158.707031 281.5 158.507812 281.605469 158.320312 C 281.710938 158.132812 281.84375 157.972656 282.011719 157.839844 C 282.179688 157.703125 282.367188 157.609375 282.574219 157.550781 C 282.78125 157.492188 282.988281 157.472656 283.203125 157.496094 C 283.414062 157.519531 283.617188 157.585938 283.804688 157.6875 C 283.992188 157.792969 284.152344 157.929688 284.285156 158.097656 C 284.417969 158.261719 284.515625 158.449219 284.574219 158.65625 C 284.636719 158.863281 284.652344 159.070312 284.628906 159.285156 L 260.070312 373.273438 C 260.046875 373.472656 259.988281 373.65625 259.894531 373.832031 C 259.804688 374.007812 259.683594 374.160156 259.53125 374.292969 C 259.382812 374.421875 259.214844 374.523438 259.027344 374.589844 C 258.84375 374.660156 258.648438 374.691406 258.453125 374.691406 Z M 258.453125 374.691406 " fill-opacity="1" fill-rule="nonzero"/><path fill="#ffa500" d="M 294.96875 374.691406 L 294.710938 374.691406 C 294.5 374.65625 294.304688 374.582031 294.121094 374.46875 C 293.941406 374.359375 293.789062 374.214844 293.664062 374.042969 C 293.539062 373.871094 293.453125 373.679688 293.402344 373.472656 C 293.355469 373.265625 293.347656 373.054688 293.378906 372.84375 L 327.34375 158.855469 C 327.378906 158.640625 327.449219 158.445312 327.5625 158.257812 C 327.675781 158.074219 327.820312 157.917969 327.992188 157.792969 C 328.167969 157.664062 328.359375 157.574219 328.570312 157.523438 C 328.777344 157.472656 328.992188 157.464844 329.203125 157.5 C 329.417969 157.53125 329.617188 157.605469 329.800781 157.71875 C 329.984375 157.832031 330.140625 157.972656 330.269531 158.148438 C 330.394531 158.324219 330.484375 158.515625 330.535156 158.726562 C 330.585938 158.933594 330.59375 159.148438 330.5625 159.359375 L 296.554688 373.339844 C 296.492188 373.726562 296.308594 374.050781 296.007812 374.304688 C 295.710938 374.5625 295.363281 374.691406 294.96875 374.691406 Z M 294.96875 374.691406 " fill-opacity="1" fill-rule="nonzero"/><path fill="#ffa500" d="M 79.832031 374.691406 C 79.445312 374.679688 79.105469 374.546875 78.816406 374.292969 C 78.523438 374.039062 78.347656 373.71875 78.285156 373.339844 L 44.28125 159.347656 C 44.246094 159.136719 44.253906 158.925781 44.304688 158.714844 C 44.355469 158.503906 44.445312 158.3125 44.574219 158.136719 C 44.699219 157.964844 44.855469 157.820312 45.039062 157.707031 C 45.222656 157.59375 45.421875 157.523438 45.636719 157.488281 C 45.851562 157.457031 46.0625 157.464844 46.269531 157.515625 C 46.480469 157.566406 46.671875 157.652344 46.847656 157.78125 C 47.023438 157.910156 47.164062 158.0625 47.277344 158.25 C 47.390625 158.433594 47.464844 158.632812 47.496094 158.84375 L 81.417969 372.835938 C 81.453125 373.046875 81.445312 373.253906 81.394531 373.460938 C 81.347656 373.667969 81.257812 373.859375 81.132812 374.03125 C 81.011719 374.203125 80.855469 374.347656 80.675781 374.460938 C 80.496094 374.570312 80.296875 374.644531 80.085938 374.679688 Z M 79.832031 374.691406 " fill-opacity="1" fill-rule="nonzero"/><path fill="#ffa500" d="M 115.328125 374.691406 C 115.128906 374.691406 114.941406 374.65625 114.757812 374.585938 C 114.574219 374.515625 114.40625 374.414062 114.261719 374.285156 C 114.113281 374.15625 113.992188 374.003906 113.902344 373.828125 C 113.8125 373.652344 113.753906 373.46875 113.730469 373.273438 L 89.171875 159.285156 C 89.148438 159.070312 89.164062 158.863281 89.222656 158.65625 C 89.28125 158.449219 89.378906 158.261719 89.511719 158.09375 C 89.648438 157.925781 89.808594 157.789062 89.996094 157.6875 C 90.183594 157.582031 90.382812 157.519531 90.597656 157.492188 C 90.8125 157.46875 91.019531 157.488281 91.226562 157.546875 C 91.433594 157.605469 91.621094 157.703125 91.789062 157.835938 C 91.957031 157.96875 92.09375 158.128906 92.195312 158.320312 C 92.300781 158.507812 92.363281 158.707031 92.386719 158.921875 L 116.894531 372.898438 C 116.917969 373.109375 116.898438 373.320312 116.839844 373.527344 C 116.78125 373.730469 116.6875 373.917969 116.554688 374.085938 C 116.421875 374.253906 116.261719 374.390625 116.074219 374.496094 C 115.890625 374.597656 115.691406 374.664062 115.476562 374.691406 Z M 115.328125 374.691406 " fill-opacity="1" fill-rule="nonzero"/><path fill="#fcfaf8" d="M 3.710938 159.101562 C 4.125 156.394531 4.597656 153.699219 5.132812 151.015625 C 5.667969 148.328125 6.261719 145.65625 6.914062 142.996094 C 7.566406 140.335938 8.277344 137.695312 9.046875 135.066406 C 9.816406 132.4375 10.644531 129.828125 11.53125 127.238281 C 12.414062 124.644531 13.355469 122.078125 14.355469 119.527344 C 15.355469 116.976562 16.410156 114.453125 17.523438 111.949219 C 18.632812 109.445312 19.800781 106.96875 21.023438 104.519531 C 22.242188 102.070312 23.519531 99.644531 24.847656 97.25 C 26.175781 94.859375 27.558594 92.492188 28.992188 90.160156 C 30.425781 87.828125 31.910156 85.527344 33.445312 83.261719 C 34.980469 80.992188 36.566406 78.761719 38.199219 76.566406 C 39.835938 74.367188 41.515625 72.207031 43.246094 70.085938 C 44.976562 67.964844 46.753906 65.882812 48.578125 63.835938 C 50.398438 61.792969 52.265625 59.792969 54.175781 57.832031 C 56.089844 55.871094 58.042969 53.953125 60.039062 52.078125 C 62.035156 50.207031 64.074219 48.375 66.152344 46.59375 C 68.226562 44.808594 70.34375 43.074219 72.5 41.382812 C 74.652344 39.691406 76.84375 38.050781 79.070312 36.457031 C 81.300781 34.867188 83.5625 33.324219 85.855469 31.832031 C 88.152344 30.339844 90.480469 28.898438 92.839844 27.507812 C 95.199219 26.121094 97.589844 24.785156 100.007812 23.5 C 102.425781 22.21875 104.871094 20.988281 107.347656 19.8125 C 109.820312 18.640625 112.316406 17.519531 114.839844 16.457031 C 117.363281 15.390625 119.910156 14.382812 122.476562 13.433594 C 125.046875 12.480469 127.632812 11.589844 130.238281 10.753906 C 132.847656 9.917969 135.472656 9.136719 138.113281 8.417969 C 140.753906 7.699219 143.414062 7.039062 146.082031 6.433594 C 148.753906 5.832031 151.4375 5.289062 154.132812 4.808594 C 156.828125 4.324219 159.53125 3.902344 162.246094 3.539062 C 164.960938 3.175781 167.683594 2.871094 170.410156 2.628906 C 173.136719 2.386719 175.867188 2.203125 178.605469 2.082031 C 181.339844 1.960938 184.078125 1.902344 186.816406 1.902344 C 189.550781 1.902344 192.289062 1.960938 195.023438 2.082031 C 197.761719 2.203125 200.492188 2.386719 203.21875 2.628906 C 205.945312 2.871094 208.667969 3.175781 211.382812 3.539062 C 214.097656 3.902344 216.800781 4.324219 219.496094 4.808594 C 222.191406 5.289062 224.875 5.832031 227.546875 6.433594 C 230.214844 7.039062 232.875 7.699219 235.515625 8.417969 C 238.15625 9.136719 240.78125 9.917969 243.390625 10.753906 C 245.996094 11.589844 248.585938 12.480469 251.152344 13.433594 C 253.71875 14.382812 256.265625 15.390625 258.789062 16.457031 C 261.3125 17.519531 263.808594 18.640625 266.28125 19.8125 C 268.757812 20.988281 271.203125 22.21875 273.621094 23.5 C 276.039062 24.785156 278.429688 26.121094 280.789062 27.507812 C 283.148438 28.898438 285.476562 30.339844 287.773438 31.832031 C 290.066406 33.324219 292.328125 34.867188 294.558594 36.457031 C 296.785156 38.050781 298.976562 39.691406 301.128906 41.382812 C 303.285156 43.074219 305.402344 44.808594 307.476562 46.59375 C 309.554688 48.375 311.59375 50.207031 313.589844 52.078125 C 315.585938 53.953125 317.539062 55.871094 319.453125 57.832031 C 321.363281 59.792969 323.230469 61.792969 325.050781 63.835938 C 326.875 65.882812 328.652344 67.964844 330.382812 70.085938 C 332.113281 72.207031 333.792969 74.367188 335.429688 76.566406 C 337.0625 78.761719 338.648438 80.992188 340.183594 83.261719 C 341.71875 85.527344 343.203125 87.828125 344.636719 90.160156 C 346.070312 92.492188 347.453125 94.859375 348.78125 97.25 C 350.109375 99.644531 351.386719 102.070312 352.605469 104.519531 C 353.828125 106.96875 354.996094 109.445312 356.105469 111.949219 C 357.21875 114.453125 358.273438 116.976562 359.273438 119.527344 C 360.273438 122.078125 361.214844 124.644531 362.097656 127.238281 C 362.984375 129.828125 363.8125 132.4375 364.582031 135.066406 C 365.351562 137.695312 366.0625 140.335938 366.714844 142.996094 C 367.367188 145.65625 367.960938 148.328125 368.496094 151.015625 C 369.03125 153.699219 369.503906 156.394531 369.917969 159.101562 Z M 3.710938 159.101562 " fill-opacity="1" fill-rule="nonzero"/><path fill="#ffa500" d="M 369.917969 160.710938 L 3.710938 160.710938 C 3.210938 160.699219 2.804688 160.496094 2.5 160.101562 C 2.175781 159.726562 2.050781 159.300781 2.125 158.8125 C 2.542969 156.082031 3.019531 153.363281 3.558594 150.65625 C 4.097656 147.945312 4.695312 145.25 5.355469 142.570312 C 6.011719 139.886719 6.730469 137.21875 7.507812 134.570312 C 8.285156 131.917969 9.121094 129.289062 10.011719 126.675781 C 10.90625 124.0625 11.855469 121.46875 12.863281 118.898438 C 13.875 116.328125 14.9375 113.777344 16.058594 111.253906 C 17.179688 108.730469 18.355469 106.234375 19.589844 103.761719 C 20.820312 101.289062 22.109375 98.847656 23.449219 96.429688 C 24.789062 94.015625 26.179688 91.632812 27.628906 89.28125 C 29.074219 86.925781 30.570312 84.605469 32.121094 82.320312 C 33.667969 80.035156 35.269531 77.78125 36.917969 75.566406 C 38.566406 73.351562 40.261719 71.171875 42.007812 69.035156 C 43.753906 66.894531 45.546875 64.792969 47.382812 62.730469 C 49.222656 60.671875 51.105469 58.652344 53.035156 56.671875 C 54.960938 54.695312 56.933594 52.761719 58.945312 50.871094 C 60.960938 48.984375 63.015625 47.136719 65.109375 45.339844 C 67.207031 43.539062 69.339844 41.789062 71.511719 40.085938 C 73.6875 38.378906 75.894531 36.726562 78.144531 35.117188 C 80.390625 33.511719 82.671875 31.957031 84.988281 30.453125 C 87.300781 28.945312 89.648438 27.492188 92.03125 26.09375 C 94.410156 24.691406 96.820312 23.34375 99.257812 22.050781 C 101.699219 20.753906 104.167969 19.515625 106.660156 18.332031 C 109.15625 17.144531 111.675781 16.015625 114.222656 14.945312 C 116.765625 13.871094 119.332031 12.855469 121.921875 11.894531 C 124.511719 10.9375 127.121094 10.035156 129.753906 9.191406 C 132.382812 8.347656 135.03125 7.5625 137.695312 6.839844 C 140.359375 6.113281 143.039062 5.445312 145.734375 4.839844 C 148.425781 4.230469 151.132812 3.683594 153.851562 3.195312 C 156.570312 2.710938 159.296875 2.28125 162.035156 1.917969 C 164.773438 1.550781 167.515625 1.246094 170.269531 1 C 173.019531 0.753906 175.773438 0.570312 178.53125 0.449219 C 181.292969 0.328125 184.050781 0.265625 186.816406 0.265625 C 189.578125 0.265625 192.335938 0.328125 195.097656 0.449219 C 197.855469 0.570312 200.609375 0.753906 203.359375 1 C 206.113281 1.246094 208.855469 1.550781 211.59375 1.917969 C 214.332031 2.28125 217.058594 2.710938 219.777344 3.195312 C 222.496094 3.683594 225.203125 4.230469 227.894531 4.839844 C 230.589844 5.445312 233.269531 6.113281 235.933594 6.839844 C 238.597656 7.5625 241.246094 8.347656 243.875 9.191406 C 246.507812 10.035156 249.117188 10.9375 251.707031 11.894531 C 254.296875 12.855469 256.863281 13.871094 259.40625 14.945312 C 261.953125 16.015625 264.472656 17.144531 266.96875 18.332031 C 269.460938 19.515625 271.929688 20.753906 274.371094 22.050781 C 276.808594 23.34375 279.21875 24.691406 281.597656 26.09375 C 283.980469 27.492188 286.328125 28.945312 288.644531 30.453125 C 290.957031 31.957031 293.238281 33.511719 295.484375 35.117188 C 297.734375 36.726562 299.941406 38.378906 302.117188 40.085938 C 304.289062 41.789062 306.421875 43.539062 308.519531 45.339844 C 310.613281 47.136719 312.667969 48.984375 314.683594 50.871094 C 316.695312 52.761719 318.667969 54.695312 320.59375 56.671875 C 322.523438 58.652344 324.40625 60.671875 326.246094 62.730469 C 328.082031 64.792969 329.875 66.894531 331.621094 69.035156 C 333.367188 71.171875 335.0625 73.351562 336.710938 75.566406 C 338.359375 77.78125 339.960938 80.035156 341.507812 82.320312 C 343.058594 84.605469 344.554688 86.925781 346 89.28125 C 347.449219 91.632812 348.839844 94.015625 350.179688 96.429688 C 351.519531 98.847656 352.808594 101.289062 354.039062 103.761719 C 355.273438 106.234375 356.449219 108.730469 357.570312 111.253906 C 358.691406 113.777344 359.753906 116.328125 360.765625 118.898438 C 361.773438 121.46875 362.722656 124.0625 363.617188 126.675781 C 364.507812 129.289062 365.34375 131.917969 366.121094 134.570312 C 366.898438 137.21875 367.617188 139.886719 368.273438 142.570312 C 368.933594 145.25 369.53125 147.945312 370.070312 150.65625 C 370.609375 153.363281 371.085938 156.082031 371.503906 158.8125 C 371.542969 159.042969 371.527344 159.273438 371.464844 159.5 C 371.398438 159.726562 371.289062 159.925781 371.136719 160.105469 C 370.984375 160.285156 370.804688 160.421875 370.589844 160.519531 C 370.375 160.617188 370.152344 160.667969 369.917969 160.667969 Z M 5.597656 157.492188 L 368.074219 157.492188 C 367.640625 154.832031 367.148438 152.183594 366.597656 149.542969 C 366.046875 146.90625 365.4375 144.277344 364.773438 141.667969 C 364.105469 139.054688 363.382812 136.457031 362.601562 133.875 C 361.824219 131.296875 360.984375 128.734375 360.09375 126.191406 C 359.199219 123.644531 358.25 121.125 357.246094 118.621094 C 356.242188 116.121094 355.183594 113.640625 354.070312 111.1875 C 352.957031 108.730469 351.789062 106.300781 350.566406 103.898438 C 349.347656 101.492188 348.074219 99.117188 346.75 96.769531 C 345.425781 94.421875 344.046875 92.105469 342.621094 89.816406 C 341.191406 87.53125 339.714844 85.273438 338.1875 83.054688 C 336.664062 80.832031 335.085938 78.644531 333.464844 76.492188 C 331.84375 74.335938 330.171875 72.222656 328.457031 70.140625 C 326.738281 68.0625 324.980469 66.023438 323.171875 64.019531 C 321.367188 62.019531 319.515625 60.058594 317.625 58.136719 C 315.734375 56.21875 313.800781 54.339844 311.824219 52.503906 C 309.847656 50.671875 307.835938 48.878906 305.78125 47.132812 C 303.726562 45.386719 301.636719 43.6875 299.507812 42.03125 C 297.378906 40.378906 295.210938 38.773438 293.011719 37.210938 C 290.8125 35.652344 288.582031 34.144531 286.3125 32.683594 C 284.046875 31.222656 281.75 29.8125 279.421875 28.453125 C 277.09375 27.09375 274.738281 25.785156 272.351562 24.53125 C 269.964844 23.277344 267.554688 22.074219 265.113281 20.925781 C 262.675781 19.773438 260.214844 18.679688 257.726562 17.640625 C 255.238281 16.597656 252.730469 15.613281 250.199219 14.683594 C 247.667969 13.753906 245.121094 12.878906 242.550781 12.058594 C 239.980469 11.242188 237.394531 10.480469 234.792969 9.777344 C 232.191406 9.074219 229.574219 8.425781 226.945312 7.835938 C 224.3125 7.25 221.671875 6.71875 219.015625 6.246094 C 216.363281 5.773438 213.699219 5.359375 211.027344 5.003906 C 208.351562 4.648438 205.675781 4.351562 202.988281 4.117188 C 200.304688 3.878906 197.613281 3.699219 194.921875 3.582031 C 192.226562 3.464844 189.53125 3.402344 186.835938 3.402344 C 184.140625 3.402344 181.445312 3.464844 178.75 3.582031 C 176.058594 3.699219 173.367188 3.878906 170.683594 4.117188 C 167.996094 4.351562 165.320312 4.648438 162.644531 5.003906 C 159.972656 5.359375 157.308594 5.773438 154.65625 6.246094 C 152 6.71875 149.359375 7.25 146.726562 7.835938 C 144.097656 8.425781 141.480469 9.074219 138.878906 9.777344 C 136.277344 10.480469 133.691406 11.242188 131.121094 12.058594 C 128.550781 12.878906 126.003906 13.753906 123.472656 14.683594 C 120.941406 15.613281 118.433594 16.597656 115.945312 17.640625 C 113.457031 18.679688 110.996094 19.773438 108.558594 20.925781 C 106.117188 22.074219 103.707031 23.277344 101.320312 24.53125 C 98.933594 25.785156 96.578125 27.09375 94.25 28.453125 C 91.921875 29.8125 89.625 31.222656 87.355469 32.683594 C 85.089844 34.144531 82.859375 35.652344 80.660156 37.210938 C 78.460938 38.773438 76.292969 40.378906 74.164062 42.03125 C 72.035156 43.6875 69.945312 45.386719 67.890625 47.132812 C 65.835938 48.878906 63.824219 50.671875 61.847656 52.503906 C 59.871094 54.339844 57.9375 56.21875 56.046875 58.136719 C 54.152344 60.058594 52.304688 62.019531 50.5 64.019531 C 48.691406 66.023438 46.933594 68.0625 45.214844 70.140625 C 43.5 72.222656 41.828125 74.335938 40.207031 76.492188 C 38.582031 78.644531 37.007812 80.832031 35.484375 83.054688 C 33.957031 85.273438 32.480469 87.53125 31.050781 89.816406 C 29.625 92.105469 28.246094 94.421875 26.921875 96.769531 C 25.597656 99.117188 24.324219 101.492188 23.105469 103.898438 C 21.882812 106.300781 20.714844 108.730469 19.601562 111.1875 C 18.488281 113.640625 17.429688 116.121094 16.425781 118.621094 C 15.421875 121.125 14.472656 123.644531 13.578125 126.191406 C 12.6875 128.734375 11.847656 131.296875 11.070312 133.875 C 10.289062 136.457031 9.566406 139.054688 8.898438 141.667969 C 8.234375 144.277344 7.625 146.90625 7.074219 149.542969 C 6.523438 152.183594 6.03125 154.832031 5.597656 157.492188 Z M 5.597656 157.492188 " fill-opacity="1" fill-rule="nonzero"/><path fill="#ffa500" d="M 184.199219 374.691406 C 183.984375 374.691406 183.777344 374.648438 183.582031 374.566406 C 183.386719 374.484375 183.210938 374.371094 183.058594 374.21875 C 182.910156 374.066406 182.792969 373.894531 182.710938 373.695312 C 182.628906 373.5 182.589844 373.292969 182.589844 373.082031 L 182.589844 318.816406 C 182.589844 318.605469 182.628906 318.398438 182.710938 318.203125 C 182.792969 318.003906 182.910156 317.832031 183.058594 317.679688 C 183.210938 317.527344 183.386719 317.414062 183.582031 317.332031 C 183.777344 317.25 183.984375 317.207031 184.199219 317.207031 C 184.410156 317.207031 184.617188 317.25 184.8125 317.332031 C 185.011719 317.414062 185.183594 317.527344 185.335938 317.679688 C 185.484375 317.832031 185.601562 318.003906 185.683594 318.203125 C 185.765625 318.398438 185.804688 318.605469 185.804688 318.816406 L 185.804688 373.082031 C 185.804688 373.292969 185.765625 373.5 185.683594 373.695312 C 185.601562 373.894531 185.484375 374.066406 185.335938 374.21875 C 185.183594 374.371094 185.011719 374.484375 184.8125 374.566406 C 184.617188 374.648438 184.410156 374.691406 184.199219 374.691406 Z M 184.199219 374.691406 " fill-opacity="1" fill-rule="nonzero"/><path fill="#ffa500" d="M 222.042969 374.691406 L 221.914062 374.691406 C 221.703125 374.671875 221.5 374.613281 221.308594 374.515625 C 221.121094 374.417969 220.957031 374.289062 220.816406 374.125 C 220.679688 373.964844 220.574219 373.78125 220.507812 373.578125 C 220.441406 373.375 220.417969 373.164062 220.433594 372.953125 L 231.953125 229.164062 C 231.96875 228.949219 232.027344 228.746094 232.125 228.558594 C 232.222656 228.367188 232.351562 228.203125 232.515625 228.0625 C 232.675781 227.925781 232.859375 227.824219 233.0625 227.757812 C 233.269531 227.691406 233.476562 227.667969 233.691406 227.683594 C 233.902344 227.699219 234.105469 227.757812 234.296875 227.855469 C 234.484375 227.953125 234.652344 228.082031 234.789062 228.246094 C 234.929688 228.410156 235.03125 228.589844 235.097656 228.796875 C 235.164062 229 235.1875 229.207031 235.167969 229.421875 L 223.640625 373.21875 C 223.625 373.421875 223.574219 373.613281 223.484375 373.792969 C 223.394531 373.972656 223.277344 374.132812 223.128906 374.269531 C 222.980469 374.40625 222.8125 374.507812 222.625 374.582031 C 222.4375 374.65625 222.246094 374.691406 222.042969 374.691406 Z M 222.042969 374.691406 " fill-opacity="1" fill-rule="nonzero"/><path fill="#ffa500" d="M 149.6875 374.691406 C 149.484375 374.691406 149.292969 374.65625 149.105469 374.582031 C 148.917969 374.507812 148.75 374.40625 148.601562 374.269531 C 148.453125 374.132812 148.335938 373.972656 148.246094 373.792969 C 148.15625 373.613281 148.105469 373.421875 148.089844 373.21875 L 136.195312 224.003906 C 136.179688 223.792969 136.203125 223.582031 136.269531 223.378906 C 136.335938 223.175781 136.4375 222.992188 136.578125 222.832031 C 136.714844 222.667969 136.878906 222.539062 137.070312 222.441406 C 137.261719 222.34375 137.464844 222.285156 137.675781 222.269531 C 137.890625 222.253906 138.097656 222.277344 138.300781 222.34375 C 138.503906 222.410156 138.6875 222.511719 138.851562 222.648438 C 139.015625 222.789062 139.144531 222.953125 139.242188 223.140625 C 139.339844 223.332031 139.394531 223.535156 139.414062 223.746094 L 151.359375 372.953125 C 151.375 373.164062 151.351562 373.375 151.285156 373.578125 C 151.21875 373.78125 151.117188 373.964844 150.980469 374.125 C 150.839844 374.289062 150.675781 374.417969 150.484375 374.515625 C 150.296875 374.613281 150.09375 374.671875 149.878906 374.691406 Z M 149.6875 374.691406 " fill-opacity="1" fill-rule="nonzero"/><path fill="#ffa500" d="M 267.964844 81.449219 L 275.546875 104.546875 L 294.914062 111.753906 L 304.027344 106.394531 C 304.027344 106.394531 308.320312 87.496094 294.097656 79.003906 C 279.878906 70.511719 267.964844 81.449219 267.964844 81.449219 Z M 267.964844 81.449219 " fill-opacity="1" fill-rule="nonzero"/><path fill="#ffa500" d="M 119.851562 64.964844 L 134.714844 67.292969 L 146.210938 56.761719 C 147.398438 55.675781 148.292969 54.386719 148.902344 52.898438 C 149.507812 51.410156 149.765625 49.863281 149.675781 48.257812 C 149.625 47.320312 149.457031 46.40625 149.167969 45.515625 C 148.875 44.625 148.476562 43.785156 147.964844 43 C 147.457031 42.214844 146.855469 41.503906 146.160156 40.878906 C 145.464844 40.25 144.699219 39.71875 143.863281 39.292969 C 138.265625 36.441406 129.203125 33.695312 120.464844 39.175781 C 118.222656 40.515625 116.292969 42.214844 114.679688 44.269531 C 113.066406 46.324219 111.871094 48.601562 111.101562 51.101562 C 110.992188 51.472656 110.898438 51.847656 110.828125 52.226562 C 110.757812 52.609375 110.707031 52.992188 110.675781 53.378906 C 110.648438 53.765625 110.636719 54.152344 110.648438 54.539062 C 110.660156 54.925781 110.691406 55.308594 110.746094 55.695312 C 110.796875 56.078125 110.871094 56.457031 110.964844 56.832031 C 111.054688 57.210938 111.167969 57.578125 111.300781 57.945312 C 111.433594 58.308594 111.585938 58.664062 111.757812 59.011719 C 111.925781 59.359375 112.117188 59.695312 112.324219 60.023438 C 112.53125 60.351562 112.753906 60.667969 112.992188 60.96875 C 113.234375 61.273438 113.488281 61.5625 113.761719 61.839844 C 114.03125 62.117188 114.316406 62.378906 114.617188 62.625 C 114.917969 62.871094 115.226562 63.097656 115.550781 63.3125 C 115.875 63.523438 116.210938 63.71875 116.554688 63.894531 C 116.898438 64.070312 117.253906 64.230469 117.613281 64.367188 C 117.976562 64.507812 118.34375 64.628906 118.71875 64.726562 C 119.089844 64.828125 119.46875 64.90625 119.851562 64.964844 Z M 119.851562 64.964844 " fill-opacity="1" fill-rule="nonzero"/><path fill="#ffa500" d="M 193.355469 43.859375 L 213.96875 56.730469 L 233.453125 49.867188 L 237.058594 39.988281 C 237.058594 39.988281 228.253906 22.722656 211.886719 25.308594 C 195.523438 27.894531 193.355469 43.859375 193.355469 43.859375 Z M 193.355469 43.859375 " fill-opacity="1" fill-rule="nonzero"/><path fill="#ffa500" d="M 179.917969 95.25 L 170.933594 100.871094 L 155.542969 95.507812 L 152.699219 87.667969 C 152.699219 87.667969 159.648438 74.039062 172.574219 76.078125 C 175.804688 76.539062 178.664062 77.824219 181.152344 79.9375 C 181.429688 80.183594 181.695312 80.445312 181.945312 80.71875 C 182.191406 80.996094 182.425781 81.285156 182.640625 81.589844 C 182.855469 81.890625 183.050781 82.207031 183.230469 82.53125 C 183.40625 82.859375 183.566406 83.195312 183.707031 83.539062 C 183.84375 83.882812 183.964844 84.234375 184.0625 84.59375 C 184.160156 84.953125 184.238281 85.316406 184.292969 85.683594 C 184.351562 86.050781 184.386719 86.417969 184.398438 86.789062 C 184.410156 87.160156 184.402344 87.53125 184.375 87.902344 C 184.34375 88.273438 184.292969 88.640625 184.21875 89.003906 C 184.148438 89.371094 184.054688 89.730469 183.941406 90.082031 C 183.824219 90.4375 183.691406 90.78125 183.535156 91.121094 C 183.382812 91.457031 183.207031 91.785156 183.015625 92.105469 C 182.824219 92.421875 182.613281 92.726562 182.382812 93.019531 C 182.15625 93.3125 181.910156 93.59375 181.652344 93.859375 C 181.390625 94.125 181.113281 94.371094 180.824219 94.605469 C 180.535156 94.835938 180.234375 95.054688 179.917969 95.25 Z M 179.917969 95.25 " fill-opacity="1" fill-rule="nonzero"/><path fill="#ffa500" d="M 225.109375 93.792969 C 226.226562 94.492188 227.40625 95.058594 228.648438 95.488281 C 229.890625 95.921875 231.167969 96.210938 232.472656 96.355469 C 233.78125 96.5 235.089844 96.5 236.398438 96.347656 C 237.707031 96.199219 238.980469 95.902344 240.21875 95.464844 C 241.578125 94.984375 242.769531 94.238281 243.789062 93.222656 C 244.8125 92.210938 245.570312 91.027344 246.066406 89.675781 L 246.773438 87.734375 C 246.773438 87.734375 241.25 76.902344 230.988281 78.519531 C 228.335938 78.902344 226 79.976562 223.984375 81.738281 C 223.769531 81.9375 223.566406 82.144531 223.375 82.367188 C 223.1875 82.589844 223.007812 82.820312 222.84375 83.0625 C 222.679688 83.300781 222.53125 83.554688 222.398438 83.8125 C 222.261719 84.070312 222.140625 84.335938 222.039062 84.609375 C 221.933594 84.882812 221.84375 85.160156 221.773438 85.441406 C 221.699219 85.722656 221.644531 86.011719 221.601562 86.300781 C 221.5625 86.589844 221.539062 86.878906 221.535156 87.171875 C 221.527344 87.460938 221.539062 87.753906 221.566406 88.042969 C 221.59375 88.335938 221.636719 88.621094 221.695312 88.910156 C 221.757812 89.195312 221.832031 89.476562 221.925781 89.753906 C 222.019531 90.027344 222.125 90.300781 222.25 90.5625 C 222.375 90.828125 222.511719 91.085938 222.664062 91.332031 C 222.820312 91.582031 222.984375 91.820312 223.167969 92.050781 C 223.347656 92.277344 223.539062 92.496094 223.746094 92.703125 C 223.953125 92.910156 224.167969 93.105469 224.398438 93.289062 C 224.625 93.46875 224.863281 93.636719 225.109375 93.792969 Z M 225.109375 93.792969 " fill-opacity="1" fill-rule="nonzero"/><path fill="#ffa500" d="M 103.046875 86.414062 L 89.417969 103.421875 L 80.34375 103.421875 C 78.867188 103.417969 77.40625 103.253906 75.960938 102.925781 C 74.519531 102.601562 73.132812 102.117188 71.796875 101.480469 C 70.460938 100.84375 69.210938 100.070312 68.046875 99.15625 C 66.886719 98.242188 65.835938 97.210938 64.902344 96.066406 C 64.902344 96.066406 67.242188 78.832031 81.855469 76.183594 C 96.472656 73.535156 103.046875 86.414062 103.046875 86.414062 Z M 103.046875 86.414062 " fill-opacity="1" fill-rule="nonzero"/><path fill="#f2e9df" d="M 261.734375 163.84375 C 253.210938 132.863281 229.464844 112.390625 208.726562 118.109375 C 187.988281 123.832031 178.070312 153.558594 186.640625 184.527344 C 188.046875 189.847656 189.988281 194.96875 192.460938 199.890625 C 194.933594 204.808594 197.882812 209.421875 201.316406 213.726562 L 221.40625 215.472656 C 222.113281 215.53125 222.800781 215.683594 223.46875 215.933594 C 224.132812 216.183594 224.753906 216.519531 225.328125 216.941406 C 225.902344 217.359375 226.410156 217.851562 226.847656 218.410156 C 227.285156 218.972656 227.640625 219.582031 227.910156 220.238281 C 228.179688 220.898438 228.355469 221.582031 228.4375 222.289062 C 228.519531 222.996094 228.503906 223.699219 228.390625 224.402344 C 228.277344 225.105469 228.070312 225.777344 227.773438 226.425781 C 227.472656 227.070312 227.089844 227.664062 226.628906 228.203125 L 224.9375 230.203125 C 227.335938 230.855469 229.78125 231.179688 232.265625 231.179688 C 234.753906 231.179688 237.195312 230.855469 239.59375 230.203125 C 260.34375 224.546875 270.261719 194.808594 261.734375 163.84375 Z M 261.734375 163.84375 " fill-opacity="1" fill-rule="nonzero"/><path fill="#ffa500" d="M 243.402344 197.050781 C 241.554688 190.257812 238.804688 183.851562 235.152344 177.835938 L 209.53125 206.382812 L 222.628906 163.203125 C 214.214844 156.34375 204.605469 153.363281 195.617188 155.835938 C 193.28125 156.496094 191.089844 157.472656 189.035156 158.761719 C 186.976562 160.054688 185.144531 161.605469 183.535156 163.421875 C 183.648438 170.585938 184.664062 177.621094 186.585938 184.527344 C 188 189.851562 189.949219 194.972656 192.429688 199.894531 C 194.914062 204.8125 197.875 209.421875 201.316406 213.726562 L 221.40625 215.472656 C 222.113281 215.53125 222.800781 215.683594 223.46875 215.933594 C 224.132812 216.183594 224.753906 216.519531 225.328125 216.941406 C 225.902344 217.359375 226.410156 217.851562 226.847656 218.410156 C 227.285156 218.972656 227.640625 219.582031 227.910156 220.238281 C 228.179688 220.898438 228.355469 221.582031 228.4375 222.289062 C 228.519531 222.996094 228.503906 223.699219 228.390625 224.402344 C 228.277344 225.105469 228.070312 225.777344 227.773438 226.425781 C 227.472656 227.070312 227.089844 227.664062 226.628906 228.203125 L 224.9375 230.203125 C 227.335938 230.855469 229.78125 231.179688 232.265625 231.179688 C 234.753906 231.179688 237.195312 230.855469 239.59375 230.203125 C 241.546875 229.679688 243.417969 228.941406 245.203125 227.996094 C 246.046875 222.832031 246.316406 217.644531 246.015625 212.421875 C 245.710938 207.203125 244.839844 202.078125 243.402344 197.050781 Z M 243.402344 197.050781 " fill-opacity="1" fill-rule="nonzero"/><path fill="#f2e9df" d="M 182.402344 163.847656 C 182.910156 165.683594 183.351562 167.53125 183.734375 169.394531 C 184.117188 171.253906 184.4375 173.117188 184.691406 174.988281 C 184.949219 176.855469 185.140625 178.714844 185.265625 180.570312 C 185.390625 182.425781 185.453125 184.269531 185.449219 186.09375 C 185.445312 187.921875 185.378906 189.726562 185.242188 191.503906 C 185.109375 193.285156 184.910156 195.03125 184.644531 196.746094 C 184.382812 198.460938 184.054688 200.136719 183.667969 201.773438 C 183.277344 203.40625 182.824219 204.992188 182.3125 206.53125 C 181.800781 208.070312 181.226562 209.550781 180.597656 210.980469 C 179.96875 212.40625 179.28125 213.769531 178.539062 215.074219 C 177.796875 216.375 177 217.609375 176.152344 218.773438 C 175.308594 219.9375 174.410156 221.027344 173.46875 222.042969 C 172.523438 223.058594 171.539062 223.996094 170.507812 224.855469 C 169.476562 225.710938 168.40625 226.484375 167.296875 227.175781 C 166.191406 227.867188 165.046875 228.46875 163.871094 228.988281 C 162.699219 229.503906 161.496094 229.933594 160.265625 230.269531 C 159.035156 230.609375 157.78125 230.859375 156.507812 231.015625 C 155.234375 231.171875 153.941406 231.238281 152.636719 231.210938 C 151.332031 231.183594 150.015625 231.066406 148.691406 230.859375 C 147.367188 230.648438 146.039062 230.351562 144.710938 229.960938 C 143.378906 229.570312 142.050781 229.089844 140.726562 228.523438 C 139.40625 227.957031 138.089844 227.304688 136.785156 226.566406 C 135.484375 225.828125 134.195312 225.007812 132.921875 224.101562 C 131.652344 223.199219 130.402344 222.21875 129.171875 221.160156 C 127.945312 220.097656 126.746094 218.96875 125.574219 217.761719 C 124.402344 216.558594 123.265625 215.285156 122.160156 213.945312 C 121.054688 212.609375 119.992188 211.207031 118.964844 209.746094 C 117.941406 208.289062 116.957031 206.773438 116.019531 205.207031 C 115.082031 203.640625 114.191406 202.027344 113.351562 200.367188 C 112.511719 198.707031 111.722656 197.011719 110.984375 195.273438 C 110.25 193.539062 109.570312 191.773438 108.945312 189.980469 C 108.320312 188.183594 107.757812 186.371094 107.25 184.53125 C 106.746094 182.695312 106.300781 180.847656 105.917969 178.984375 C 105.539062 177.125 105.21875 175.261719 104.960938 173.394531 C 104.707031 171.527344 104.515625 169.664062 104.390625 167.808594 C 104.261719 165.953125 104.199219 164.109375 104.203125 162.285156 C 104.207031 160.457031 104.277344 158.65625 104.410156 156.875 C 104.546875 155.09375 104.746094 153.347656 105.007812 151.632812 C 105.273438 149.917969 105.597656 148.242188 105.988281 146.609375 C 106.378906 144.972656 106.828125 143.386719 107.34375 141.847656 C 107.855469 140.308594 108.425781 138.828125 109.058594 137.398438 C 109.6875 135.972656 110.375 134.609375 111.117188 133.304688 C 111.859375 132.003906 112.652344 130.769531 113.5 129.605469 C 114.347656 128.441406 115.242188 127.351562 116.1875 126.335938 C 117.128906 125.320312 118.117188 124.382812 119.148438 123.527344 C 120.179688 122.667969 121.25 121.894531 122.355469 121.203125 C 123.464844 120.511719 124.605469 119.910156 125.78125 119.394531 C 126.957031 118.875 128.160156 118.449219 129.390625 118.109375 C 130.621094 117.769531 131.875 117.523438 133.148438 117.363281 C 134.421875 117.207031 135.710938 117.140625 137.019531 117.167969 C 138.324219 117.195312 139.636719 117.3125 140.960938 117.519531 C 142.289062 117.730469 143.613281 118.03125 144.945312 118.417969 C 146.277344 118.808594 147.601562 119.289062 148.925781 119.855469 C 150.25 120.421875 151.5625 121.074219 152.867188 121.8125 C 154.171875 122.550781 155.460938 123.375 156.730469 124.277344 C 158.003906 125.179688 159.253906 126.160156 160.480469 127.222656 C 161.710938 128.28125 162.910156 129.414062 164.082031 130.617188 C 165.253906 131.820312 166.390625 133.09375 167.492188 134.433594 C 168.597656 135.773438 169.664062 137.171875 170.6875 138.632812 C 171.714844 140.09375 172.695312 141.605469 173.636719 143.171875 C 174.574219 144.738281 175.460938 146.351562 176.304688 148.011719 C 177.144531 149.671875 177.933594 151.371094 178.667969 153.105469 C 179.40625 154.839844 180.085938 156.605469 180.707031 158.398438 C 181.332031 160.195312 181.898438 162.011719 182.402344 163.847656 Z M 182.402344 163.847656 " fill-opacity="1" fill-rule="nonzero"/><path fill="#ffa500" d="M 164.078125 197.050781 C 162.234375 190.253906 159.484375 183.851562 155.828125 177.835938 L 130.21875 206.382812 L 143.304688 163.203125 C 134.890625 156.367188 125.292969 153.363281 116.292969 155.835938 C 113.957031 156.496094 111.765625 157.472656 109.714844 158.765625 C 107.660156 160.054688 105.828125 161.609375 104.222656 163.421875 C 104.320312 170.589844 105.335938 177.621094 107.257812 184.527344 C 115.785156 215.503906 139.515625 235.980469 160.265625 230.257812 C 162.222656 229.730469 164.097656 228.996094 165.886719 228.050781 C 166.734375 222.878906 167.003906 217.679688 166.699219 212.449219 C 166.394531 207.21875 165.519531 202.085938 164.078125 197.050781 Z M 164.078125 197.050781 " fill-opacity="1" fill-rule="nonzero"/><g clip-path="url(#81bda3c4ec)"><path fill="#ffa500" d="M 153.222656 232.863281 C 133.683594 232.863281 113.464844 213.140625 105.65625 184.96875 C 101.425781 169.671875 101.492188 154.15625 105.777344 141.324219 C 110.195312 128.238281 118.367188 119.425781 128.96875 116.507812 C 150.546875 110.566406 175.253906 131.59375 184 163.398438 C 188.21875 178.695312 188.175781 194.191406 183.890625 207.042969 C 179.472656 220.132812 171.300781 228.945312 160.699219 231.859375 C 158.25 232.535156 155.757812 232.871094 153.222656 232.863281 Z M 136.523438 118.816406 C 134.253906 118.8125 132.019531 119.109375 129.832031 119.710938 C 120.34375 122.316406 112.914062 130.367188 108.914062 142.371094 C 104.839844 154.609375 104.816406 169.417969 108.914062 184.097656 C 117.175781 214.132812 140.046875 234.132812 159.890625 228.667969 C 169.378906 226.050781 176.800781 218 180.808594 205.996094 C 184.882812 193.757812 184.90625 178.949219 180.808594 164.285156 C 173.464844 137.589844 154.570312 118.816406 136.523438 118.816406 Z M 136.523438 118.816406 " fill-opacity="1" fill-rule="nonzero"/></g><path fill="#ffa500" d="M 150.164062 253.273438 C 150.164062 253.273438 163.269531 268.191406 180.664062 271.21875 C 190.863281 273.058594 201.058594 273.058594 211.253906 271.21875 C 211.253906 271.21875 212.722656 325.621094 181.4375 323.234375 C 154.160156 321.148438 149.378906 297.570312 150.164062 253.273438 Z M 150.164062 253.273438 " fill-opacity="1" fill-rule="nonzero"/><path fill="#ffa500" d="M 157.5625 309 C 157.5625 309 162.332031 302.449219 173.234375 306.25 C 174.683594 306.925781 175.976562 307.824219 177.113281 308.949219 C 178.253906 310.074219 179.167969 311.355469 179.859375 312.796875 C 179.957031 313.003906 180.109375 313.15625 180.320312 313.25 C 180.527344 313.34375 180.742188 313.359375 180.964844 313.296875 C 181.09375 313.253906 181.210938 313.1875 181.308594 313.09375 C 181.410156 313 181.488281 312.890625 181.539062 312.765625 C 181.59375 312.636719 181.613281 312.503906 181.609375 312.367188 C 181.601562 312.230469 181.566406 312.101562 181.503906 311.980469 C 180.445312 309.882812 179.085938 307.996094 177.429688 306.328125 C 177.300781 306.183594 177.21875 306.019531 177.175781 305.832031 C 177.132812 305.648438 177.140625 305.460938 177.195312 305.277344 C 177.246094 305.097656 177.34375 304.9375 177.480469 304.804688 C 177.613281 304.667969 177.773438 304.578125 177.960938 304.527344 C 182.375 303.621094 192.96875 302.902344 200.90625 313.925781 C 200.90625 313.925781 193.960938 324.582031 183.128906 323.289062 C 172.292969 321.996094 167.511719 321.367188 157.5625 309 Z M 157.5625 309 " fill-opacity="1" fill-rule="nonzero"/><path fill="#ffa500" d="M 183.382812 324.933594 C 174.878906 324.933594 167.765625 322.117188 162.179688 316.53125 C 154.28125 308.644531 149.589844 295.546875 148.230469 277.570312 C 147.609375 269.394531 147.707031 261.230469 148.515625 253.074219 C 148.554688 252.761719 148.671875 252.480469 148.871094 252.234375 C 149.066406 251.988281 149.316406 251.816406 149.613281 251.710938 C 149.910156 251.605469 150.214844 251.589844 150.523438 251.65625 C 150.832031 251.726562 151.097656 251.871094 151.320312 252.089844 C 167.675781 268.039062 185.757812 274.003906 205.058594 269.761719 C 206.984375 269.359375 208.882812 268.863281 210.757812 268.269531 L 210.8125 268.269531 C 216.808594 266.324219 222.398438 263.5625 227.589844 259.988281 L 209.652344 248.589844 C 209.238281 248.335938 208.984375 247.96875 208.902344 247.484375 C 208.824219 246.988281 208.949219 246.546875 209.277344 246.160156 L 225.589844 226.96875 C 225.957031 226.550781 226.261719 226.09375 226.5 225.59375 C 226.738281 225.089844 226.90625 224.566406 226.996094 224.019531 C 227.089844 223.472656 227.105469 222.921875 227.042969 222.371094 C 226.980469 221.820312 226.84375 221.289062 226.632812 220.773438 C 226.421875 220.261719 226.144531 219.785156 225.800781 219.351562 C 225.457031 218.914062 225.058594 218.535156 224.609375 218.210938 C 224.160156 217.886719 223.671875 217.632812 223.152344 217.441406 C 222.628906 217.253906 222.089844 217.140625 221.539062 217.105469 L 189.566406 214.367188 C 189.347656 214.347656 189.136719 214.285156 188.941406 214.183594 C 188.746094 214.082031 188.578125 213.949219 188.4375 213.78125 C 188.292969 213.609375 188.191406 213.421875 188.125 213.210938 C 188.058594 213 188.035156 212.785156 188.054688 212.566406 C 188.070312 212.347656 188.132812 212.140625 188.234375 211.941406 C 188.335938 211.746094 188.472656 211.578125 188.640625 211.4375 C 188.808594 211.296875 188.996094 211.191406 189.207031 211.125 C 189.417969 211.058594 189.632812 211.035156 189.851562 211.054688 L 221.878906 213.835938 C 222.726562 213.910156 223.546875 214.097656 224.34375 214.394531 C 225.136719 214.695312 225.878906 215.09375 226.5625 215.597656 C 227.246094 216.101562 227.851562 216.6875 228.375 217.355469 C 228.898438 218.027344 229.320312 218.753906 229.644531 219.539062 C 229.964844 220.328125 230.175781 221.140625 230.273438 221.984375 C 230.375 222.828125 230.355469 223.671875 230.222656 224.507812 C 230.089844 225.347656 229.84375 226.15625 229.488281 226.925781 C 229.132812 227.699219 228.679688 228.40625 228.128906 229.054688 L 212.96875 246.8125 L 231.367188 258.464844 C 231.839844 258.765625 232.097656 259.195312 232.140625 259.753906 C 232.175781 260.316406 231.976562 260.777344 231.542969 261.136719 C 225.882812 265.496094 219.667969 268.8125 212.890625 271.074219 C 211.554688 322.230469 190.0625 324.558594 188.308594 324.671875 C 186.671875 324.855469 185.027344 324.941406 183.382812 324.933594 Z M 151.519531 256.863281 C 150.78125 267.332031 149.851562 299.589844 164.519531 314.289062 C 170.417969 320.1875 178.3125 322.59375 187.996094 321.433594 L 188.128906 321.433594 C 188.316406 321.433594 208.007812 319.820312 209.566406 272.203125 C 208.382812 272.542969 207.160156 272.851562 205.898438 273.128906 C 192.359375 275.988281 172.105469 275.449219 151.519531 256.863281 Z M 151.519531 256.863281 " fill-opacity="1" fill-rule="nonzero"/><g clip-path="url(#39797ec076)"><path fill="#ffa500" d="M 263.328125 163.398438 C 254.570312 131.59375 229.886719 110.566406 208.273438 116.507812 C 186.660156 122.449219 176.246094 153.164062 184.984375 184.980469 C 186.371094 190.15625 188.25 195.144531 190.625 199.949219 C 192.996094 204.753906 195.816406 209.28125 199.085938 213.527344 L 203.648438 213.925781 C 200.007812 209.582031 196.886719 204.894531 194.277344 199.867188 C 191.667969 194.835938 189.636719 189.582031 188.183594 184.105469 C 179.914062 154.058594 189.289062 125.179688 209.167969 119.710938 C 211.355469 119.109375 213.582031 118.8125 215.851562 118.816406 C 233.894531 118.816406 252.78125 137.589844 260.132812 164.292969 C 268.40625 194.332031 259.03125 223.210938 239.152344 228.679688 C 234.820312 229.839844 230.476562 229.886719 226.121094 228.824219 L 223.769531 231.582031 C 226.652344 232.433594 229.597656 232.863281 232.601562 232.875 C 235.144531 232.882812 237.640625 232.546875 240.089844 231.871094 C 261.636719 225.941406 272.082031 195.207031 263.328125 163.398438 Z M 263.328125 163.398438 " fill-opacity="1" fill-rule="nonzero"/></g></svg>